HIERARCHY
ROOT SpineBase
{
  OFFSET 0.000000 0.000000 0.000000
  CHANNELS 6 Xposition Yposition Zposition Zrotation Xrotation Yrotation
  JOINT SpineMid
  {
    OFFSET 0.000000 31.988909 0.000000
    CHANNELS 3 Zrotation Xrotation Yrotation
    JOINT SpineShoulder
    {
      OFFSET 0.168640 23.533067 -0.598804
      CHANNELS 3 Zrotation Xrotation Yrotation
      JOINT Neck
      {
        OFFSET 0.078812 7.772393 -0.533855
        CHANNELS 3 Zrotation Xrotation Yrotation
        JOINT Head
        {
          OFFSET -3.154862 9.773710 5.764889
          CHANNELS 3 Zrotation Xrotation Yrotation
          End Site
          {
            OFFSET 0 0 0
          }
        }
      }
      JOINT ShoulderLeft
      {
        OFFSET -4.440477 -4.070430 -6.949906
        CHANNELS 3 Zrotation Xrotation Yrotation
        JOINT ElbowLeft
        {
          OFFSET 12.903793 -22.253895 -4.218297
          CHANNELS 3 Zrotation Xrotation Yrotation
          JOINT WristLeft
          {
            OFFSET 6.645725 -24.633570 1.648021
            CHANNELS 3 Zrotation Xrotation Yrotation
            JOINT HandLeft
            {
              OFFSET -0.055112 -7.592291 1.466735
              CHANNELS 3 Zrotation Xrotation Yrotation
              JOINT HandTipLeft
              {
                OFFSET 1.868316 -5.672937 -0.153635
                CHANNELS 3 Zrotation Xrotation Yrotation
                End Site
                {
                  OFFSET 0 0 0
                }
              }
              JOINT ThumbLeft
              {
                OFFSET 2.959059 0.331691 -1.814401
                CHANNELS 3 Zrotation Xrotation Yrotation
                End Site
                {
                  OFFSET 0 0 0
                }
              }
            }
          }
        }
      }
      JOINT ShoulderRight
      {
        OFFSET 7.394223 -5.804064 -10.812985
        CHANNELS 3 Zrotation Xrotation Yrotation
        JOINT ElbowRight
        {
          OFFSET 5.224022 -25.125396 -1.576505
          CHANNELS 3 Zrotation Xrotation Yrotation
          JOINT WristRight
          {
            OFFSET 3.748221 -18.563872 3.324073
            CHANNELS 3 Zrotation Xrotation Yrotation
            JOINT HandRight
            {
              OFFSET 0.122010 -0.979929 -0.368844
              CHANNELS 3 Zrotation Xrotation Yrotation
              JOINT HandTipRight
              {
                OFFSET 4.268561 -6.333419 0.262992
                CHANNELS 3 Zrotation Xrotation Yrotation
                End Site
                {
                  OFFSET 0 0 0
                }
              }
              JOINT ThumbRight
              {
                OFFSET -2.762660 -0.035317 -2.699154
                CHANNELS 3 Zrotation Xrotation Yrotation
                End Site
                {
                  OFFSET 0 0 0
                }
              }
            }
          }
        }
      }
    }
  }
  JOINT HipLeft
  {
    OFFSET -4.578791 0.326688 -1.347311
    CHANNELS 3 Zrotation Xrotation Yrotation
    JOINT KneeLeft
    {
      OFFSET 2.337810 -32.686774 0.831020
      CHANNELS 3 Zrotation Xrotation Yrotation
      JOINT AnkleLeft
      {
        OFFSET 9.074965 -32.151327 -12.755761
        CHANNELS 3 Zrotation Xrotation Yrotation
        JOINT FootLeft
        {
          OFFSET -1.458138 -2.989786 -18.307587
          CHANNELS 3 Zrotation Xrotation Yrotation
          End Site
          {
            OFFSET 0 0 0
          }
        }
      }
    }
  }
  JOINT HipRight
  {
    OFFSET 5.482226 0.902160 -5.198851
    CHANNELS 3 Zrotation Xrotation Yrotation
    JOINT KneeRight
    {
      OFFSET -0.419804 -30.531324 -1.476419
      CHANNELS 3 Zrotation Xrotation Yrotation
      JOINT AnkleRight
      {
        OFFSET -11.938724 -34.414015 10.039635
        CHANNELS 3 Zrotation Xrotation Yrotation
        JOINT FootRight
        {
          OFFSET 4.116793 -6.554026 -2.867826
          CHANNELS 3 Zrotation Xrotation Yrotation
          End Site
          {
            OFFSET 0 0 0
          }
        }
      }
    }
  }
}
MOTION
Frames: 6
Frame Time: 0.033333
-39.336060 72.097169 329.286971 0.349569 -1.437173 16.358946 0.074042 -0.528892 -16.327225 -0.238278 -0.127606 0.019605 7.825923 -1.601706 -6.039184 0.000000 0.000000 0.000000 -25.229377 -2.462160 2.367862 26.008885 -0.585047 -4.196760 4.570587 17.123547 0.984802 -15.895805 -28.091548 -10.267741 0.000000 0.000000 0.000000 0.000000 0.000000 0.000000 0.253370 0.055457 -0.500044 -0.921578 5.131933 1.067345 -4.807669 -33.920154 -4.892774 -20.377267 26.198412 10.544508 0.000000 0.000000 0.000000 0.000000 0.000000 0.000000 -8.271226 0.146505 -16.692284 -3.886657 -16.190979 -2.314197 11.108966 14.898666 4.300767 0.000000 0.000000 0.000000 3.423657 4.202831 -16.688714 22.453762 21.741154 -6.350860 -135.874627 -23.709293 -56.871239 0.000000 0.000000 0.000000
-39.378113 72.105109 329.307488 0.322302 -1.422808 16.461169 0.016199 -0.495915 -16.431977 -0.241193 -0.081388 0.014696 8.675067 -1.474389 -6.399749 0.000000 0.000000 0.000000 -24.650555 -1.358262 3.295691 25.456183 -2.028983 -4.543225 7.847944 8.073793 1.782651 -8.713411 -27.685684 -9.894142 0.000000 0.000000 0.000000 0.000000 0.000000 0.000000 0.456078 0.049755 -0.488176 -1.316379 4.736486 0.958738 -3.751830 -32.333094 -4.466128 -23.876245 26.639818 13.775144 0.000000 0.000000 0.000000 0.000000 0.000000 0.000000 -8.221716 0.154365 -16.794431 -3.884223 -16.158633 -2.303059 11.104707 14.872330 4.119480 0.000000 0.000000 0.000000 3.613552 4.167021 -16.806100 22.097634 21.624511 -6.299930 -132.756562 -24.594098 -50.364890 0.000000 0.000000 0.000000
-39.400603 72.117111 329.313008 0.258907 -1.386784 16.546593 -0.047688 -0.438888 -16.521973 -0.244692 -0.022731 0.007347 9.797399 -1.553513 -6.915218 0.000000 0.000000 0.000000 -24.782769 -1.386796 3.404909 25.751447 -2.214420 -4.643433 7.706920 8.005095 1.780123 1.283493 -36.762977 -9.410795 0.000000 0.000000 0.000000 0.000000 0.000000 0.000000 0.737240 -0.019425 -0.476098 -2.310729 5.551055 1.044409 -3.674835 -31.568498 -4.150545 -20.757518 24.400430 10.218761 0.000000 0.000000 0.000000 0.000000 0.000000 0.000000 -8.181651 0.115166 -16.888299 -3.815467 -16.063076 -2.280109 11.055078 14.806453 4.057181 0.000000 0.000000 0.000000 3.796668 4.085522 -16.901492 21.801828 21.562964 -6.280166 -131.422232 -24.965422 -48.375447 0.000000 0.000000 0.000000
-39.408178 72.130614 329.312431 0.153005 -1.340831 16.595525 -0.124421 -0.342613 -16.577811 -0.270219 0.033290 -0.004083 11.453279 -1.889596 -7.718842 0.000000 0.000000 0.000000 -24.527700 -1.007205 3.833419 25.680702 -2.916516 -4.849872 6.182123 15.974225 1.084959 3.432250 -41.999272 -7.103155 0.000000 0.000000 0.000000 0.000000 0.000000 0.000000 1.056925 -0.141574 -0.455981 -1.578470 5.104435 1.048023 -4.801903 -32.650118 -4.530336 -18.180445 27.772355 11.293049 0.000000 0.000000 0.000000 0.000000 0.000000 0.000000 -8.128370 0.040337 -16.952074 -3.762345 -15.987513 -2.257842 11.046171 14.791747 3.943399 0.000000 0.000000 0.000000 3.959747 4.021929 -16.955323 21.603842 21.465799 -6.235998 -132.319035 -24.904898 -51.219993 0.000000 0.000000 0.000000
-39.396326 72.146922 329.307352 0.062571 -1.306394 16.598481 -0.135621 -0.295943 -16.585320 -0.230349 0.041787 -0.007309 12.307391 -2.001648 -8.140666 0.000000 0.000000 0.000000 -25.535773 -2.666921 2.612604 26.810051 -1.027106 -4.485318 6.623117 18.523672 0.898769 -8.258924 -33.182048 -8.733416 0.000000 0.000000 0.000000 0.000000 0.000000 0.000000 0.930926 0.123288 -0.364292 0.894079 3.113946 0.917588 -8.195794 -32.963743 -4.842363 -14.308906 31.579738 11.334113 0.000000 0.000000 0.000000 0.000000 0.000000 0.000000 -8.125440 -0.024408 -16.968865 -3.707323 -15.884792 -2.214618 11.078146 14.743007 3.824423 0.000000 0.000000 0.000000 4.038417 4.016955 -16.958140 21.503048 21.312374 -6.155343 -135.160874 -24.238470 -58.530900 0.000000 0.000000 0.000000
-39.413480 72.159009 329.321003 -0.055097 -1.317301 16.708391 -0.107855 -0.304415 -16.699340 -0.186581 -0.010759 -0.008245 12.633209 -1.701134 -8.249737 0.000000 0.000000 0.000000 -26.027998 -3.827822 1.619585 27.342719 0.520013 -4.141936 4.208510 22.022688 0.715806 -11.638194 -25.549139 -6.483581 0.000000 0.000000 0.000000 0.000000 0.000000 0.000000 0.845507 0.300120 -0.330369 3.442140 1.548736 0.977421 -10.496354 -33.066934 -5.169714 -12.144646 33.941861 11.261745 0.000000 0.000000 0.000000 0.000000 0.000000 0.000000 -8.585322 -0.184293 -17.125152 -2.595502 -15.067566 -2.127521 10.454749 14.237980 4.197408 0.000000 0.000000 0.000000 4.212936 4.067915 -17.076582 21.415331 21.122336 -6.049108 -138.204634 -23.206695 -68.830887 0.000000 0.000000 0.000000
